# xmcd
#
# Track frame offsets:
#	182
#	18467
#	31595
#	47725
#	65275
#	78800
#	96577
#	111072
#	127172
#	140775
#	157377
#
# Disc length: 2271
#
# Revision: 4
# Processed by: cddbd v1.5.1PL0 Copyright (c) Steve Scherf et al.
# Submitted via: Media_Universe 3.0
# Normalized: r3:DSETVAR1,TDELIM( - )
#
DISCID=9708dd0b
DTITLE=Various Artist - The Complete Motown Anthology Disc 8
DYEAR=1900
DGENRE=Motown
TTITLE0=Marvin Gaye - Let's Get It On
TTITLE1=Rare Earth - I Just Want To Celebrate
TTITLE2=eddie Kendricks - Keep On Truckin' Pt. 1
TTITLE3=Temtations, The - Psychedelic Shack
TTITLE4=Michael Jackson - I Wann Be Where You Are
TTITLE5=Marvin Gaye - What's Going On
TTITLE6=Glayds Knight and The Pips - If I Were Your Woman
TTITLE7=Commodores - Brick House
TTITLE8=Miracles, The - Love Machine Pt. 1
TTITLE9=Thelma Houston - Don't Leave Me This Way
TTITLE10=Diana Ross and The Supremes - The Nitty Gritty
EXTD=
EXTT0=
EXTT1=
EXTT2=
EXTT3=
EXTT4=
EXTT5=
EXTT6=
EXTT7=
EXTT8=
EXTT9=
EXTT10=
PLAYORDER=
